<svg width="18" height="14" viewBox="0 0 18 14" fill="none" xmlns="http://www.w3.org/2000/svg">
<path d="M17.0887 7.59089L11.2562 13.4234C11.0937 13.5859 10.8803 13.6676 10.667 13.6676C10.4537 13.6676 10.2403 13.5859 10.0778 13.4234C9.75197 13.0976 9.75197 12.5709 10.0778 12.245L14.4886 7.83422H1.50033C1.03949 7.83422 0.666992 7.46089 0.666992 7.00089C0.666992 6.54089 1.03949 6.16755 1.50033 6.16755H14.4886L10.0778 1.75674C9.75197 1.43091 9.75197 0.904193 10.0778 0.578359C10.4036 0.252526 10.9304 0.252526 11.2562 0.578359L17.0887 6.41088C17.1662 6.48838 17.2271 6.57999 17.2696 6.68249C17.3537 6.88582 17.3537 7.11595 17.2696 7.31929C17.2271 7.42179 17.1662 7.51339 17.0887 7.59089Z" fill="#ffffff"/>
</svg>
