<svg width="18" height="14" viewBox="0 0 18 14" fill="none" xmlns="http://www.w3.org/2000/svg">
<path d="M17.3337 7.00089C17.3337 7.46089 16.9612 7.83422 16.5003 7.83422H3.51206L7.92287 12.245C8.2487 12.5709 8.2487 13.0976 7.92287 13.4234C7.76037 13.5859 7.54701 13.6676 7.33367 13.6676C7.12034 13.6676 6.90698 13.5859 6.74448 13.4234L0.911961 7.59089C0.834461 7.51339 0.773594 7.42179 0.731094 7.31929C0.646927 7.11595 0.646927 6.88582 0.731094 6.68249C0.773594 6.57999 0.834461 6.48838 0.911961 6.41088L6.74448 0.578359C7.07031 0.252526 7.59703 0.252526 7.92287 0.578359C8.2487 0.904193 8.2487 1.43091 7.92287 1.75674L3.51206 6.16755H16.5003C16.9612 6.16755 17.3337 6.54089 17.3337 7.00089Z" fill="#ffffff"/>
</svg>
