<?xml version="1.0" standalone="no"?>
<!DOCTYPE svg PUBLIC "-//W3C//DTD SVG 20010904//EN"
 "http://www.w3.org/TR/2001/REC-SVG-20010904/DTD/svg10.dtd">
<svg version="1.0" xmlns="http://www.w3.org/2000/svg"
 width="492.000000pt" height="492.000000pt" viewBox="0 0 492.000000 492.000000"
 preserveAspectRatio="xMidYMid meet">
<metadata>
Created by potrace 1.14, written by Peter Selinger 2001-2017
</metadata>
<g transform="translate(0.000000,492.000000) scale(0.100000,-0.100000)"
fill="#000000" stroke="none">
<path d="M1995 3860 c0 -577 2 -1050 5 -1051 3 -1 228 -2 501 -4 l496 -2 1
681 c0 374 -2 689 -4 698 -3 9 -58 54 -122 100 -231 166 -520 374 -694 500
-98 70 -179 128 -180 128 -2 0 -3 -472 -3 -1050z"/>
<path d="M22 3379 l3 -1244 170 -122 c176 -127 662 -476 766 -550 33 -24 61
-43 62 -43 1 0 2 572 2 1270 l0 1270 -490 326 c-269 180 -495 328 -502 331
-11 4 -13 -224 -11 -1238z"/>
<path d="M3905 3051 l0 -1560 25 -15 c14 -8 34 -22 45 -31 11 -8 108 -79 215
-156 107 -77 220 -158 250 -180 30 -22 111 -80 180 -129 142 -102 155 -111
224 -162 28 -21 54 -38 58 -38 3 0 6 713 6 1584 l0 1584 -498 331 c-275 182
-500 331 -502 331 -2 0 -3 -702 -3 -1559z"/>
<path d="M2009 2112 c-12 -2 -14 -106 -14 -696 0 -382 2 -696 5 -699 3 -2 59
-42 125 -89 156 -110 801 -574 841 -605 l31 -23 -1 1052 -1 1053 -150 3 c-257
4 -821 7 -836 4z"/>
</g>
</svg>
